<?xml version="1.0" encoding="utf-8"?>
<svg version="1.1" xmlns="http://www.w3.org/2000/svg" xmlns:xlink="http://www.w3.org/1999/xlink" x="0px"
	 y="0px" viewBox="0 0 283.5 110" xml:space="preserve">
<style type="text/css">
	.st0{fill:#FF3C28;}
</style>
<g>
	<g>
		<g>
			<g>
				<path class="st0" d="M38,1c28.3-0.4,34.7,21.7,34.7,36.5S61.2,54.3,61.2,54.3C71.9,56,80.4,65.4,80.4,84.4
					c0,19-18.4,20.1-18.4,20.1l-30.9,2.2L14.2,33.1c0-5.6,3.7-10.1,11-10.1c7.3,0,8.8,6.6,8.8,6.6l3.3,15.2c0,0,8.6,0,9.7,0
					c1.1,0,9.6-2.1,6.6-14.8c-2.9-12.7-12.8-12.9-12.8-12.9s-15.6,0-23.5,0c-7.8,0-11.6-6.7-11.6-6.7L0,0L38,1z M45.8,89l9.2-0.8
					c0,0,7.2-0.4,7.2-9.7c0-9.3-4.8-17.7-12.8-17.7h-8.8L45.8,89z"/>
			</g>
		</g>
		<g>
			<path class="st0" d="M83,25.1H103l4.2,65.6c0,0,0.3,7.3,6.4,7.3c6.1,0,6.2-6.5,6.2-7.4c0-1-1.6-60.8-1.6-60.8s1.1-7.8,9.3-7.8
				c8.2,0,8.8,8,8.8,8l1,76.7c0,0-6.2,0.6-8.1,0.6c-2,0-7.3-1-8.9-5.9c0,0-2.9,8.6-15.3,8.6c-12.3,0-15.3-12.1-15.3-12.1L83,25.1z"
				/>
		</g>
		<path class="st0" d="M164.6,4.6c0,0,11-1.2,15.3,10.5c0,0,2.5-7.4,11.1-7.4h5.9L189,77.3c0,0-0.5,18.6-23.6,18.6
			c0,0-18.7,1.3-19.7-14.4c0,0-0.1-8.5,7.1-8.5c0,0,7-0.7,7,7.3c0,0,0.5,6.6,5.7,6.6c5.2,0,7.9-3.1,9.1-22.8c0,0-3.9,7.1-15.1,7.1
			c-11.1,0-16.6-6.9-15.3-27.8C145.8,22.8,145.4,5.5,164.6,4.6z M163.5,27.6c-0.4,2.8-1.9,20.6-1.9,23.8c0,3.1,0.9,9.2,6.4,9.2
			c5.5,0,6.5-5.3,7.1-8.9c0.7-3.6,1.8-12,2.3-23.3c0.5-11.2-6.1-11-6.1-11C165.2,17.3,163.9,24.7,163.5,27.6z"/>
		<path class="st0" d="M196.8,70.3h14.8c0,0-3.7,11.6,3,11.6c6.7,0,7.5-9.7,7.5-9.7s0.7-5.9-7-10.1c-7.7-4.2-13.7-11.4-13.1-20.4
			c0.6-9,4.9-29.3,26.5-29.3c0,0,16.3-1.1,16.3,14.9c0,15.9-7.9,16.4-9.9,16.4c0,0-6.2-0.1-6.2-5.9c0-5.8,2.4-11.1-2.9-11.1
			c-5.4,0-7.6,7.5-7.6,9.9c0,2.3,0.2,5.3,5,9.1c4.8,3.8,13.6,8.4,13.6,20.3c0,11.9-9.1,28-26.2,28C193.5,94,195.1,82,196.8,70.3z"/>
		<path class="st0" d="M244.4,77.8c0,4.2,3.4,7.6,7.6,7.6c4.2,0,7.6-3.4,7.6-7.6c0-4.2-3.4-7.6-7.6-7.6
			C247.8,70.3,244.4,73.7,244.4,77.8z"/>
		<path class="st0" d="M262.8,8.3h20.6L262,61.8c0,0-1.8,4.6-6.5,4.6c0,0-6.1,0.2-4.8-7.1L262.8,8.3z"/>
	</g>
</g>
</svg>
