<?xml version="1.0" encoding="utf-8"?>
<svg version="1.1" xmlns="http://www.w3.org/2000/svg" xmlns:xlink="http://www.w3.org/1999/xlink" x="0px"
	 y="0px" viewBox="0 0 340.2 164.5" xml:space="preserve">
<style type="text/css">
	.st0{fill:#0096FF;}
</style>
<g>
	<path class="st0" d="M250.5,33.5c-5.5,0-9.9,4.4-9.9,9.9V120c0,5.5,4.4,9.9,9.9,9.9s9.9-4.4,9.9-9.9V43.4
		C260.4,38,255.9,33.5,250.5,33.5z"/>
	<circle class="st0" cx="250.5" cy="13" r="13"/>
	<path class="st0" d="M190.2,33.5c-17.1,0-31.1,13.8-31.2,30.9h0v0.3V120c0,5.5,4.4,9.9,9.9,9.9c5.5,0,9.9-4.4,9.9-9.9V64.8
		c0-6.3,5.1-11.4,11.4-11.4c6.3,0,11.4,5.1,11.4,11.4V120c0,5.5,4.4,9.9,9.9,9.9s9.9-4.4,9.9-9.9V64.8v-0.3h0
		C221.2,47.3,207.3,33.5,190.2,33.5z"/>
	<path class="st0" d="M53.5,34.4l-8.2,4.9c-4.2-2.1-9-3.4-14.1-3.4C14.1,35.9,0.2,49.7,0,66.8h0V99h0c0.2,17.1,14.1,30.9,31.2,30.9
		c4,0,7.9-0.8,11.4-2.2v5.6c0,6.3-5.1,11.4-11.4,11.4c-4.2,0-7.8-2.4-9.8-4.6c-1.7-1.8-4.1-2.8-6.5-2.8l0,0
		c-9.1,0-13.8,10.9-7.5,17.4c5.7,5.9,14.3,9.8,23.9,9.8c17.1,0,31.1-13.8,31.2-30.9h0v-0.3V99v-0.3V67.1v-0.3V39.4
		C62.5,34.9,57.5,32,53.5,34.4z M42.7,98.4c0,6.2-4.8,11.5-11,11.7c-6.5,0.2-11.9-5-11.9-11.4V67.4c0-6.2,4.8-11.5,11-11.7
		c6.5-0.2,11.9,5,11.9,11.4V98.4z"/>
	<path class="st0" d="M79.8,121.5L79.8,121.5c0-0.1,0-0.2,0-0.3V121.5z"/>
	<path class="st0" d="M142.2,121.5v-0.3C142.2,121.3,142.2,121.4,142.2,121.5L142.2,121.5z"/>
	<path class="st0" d="M111,33.5c-17.1,0-31.1,13.8-31.2,30.9h0v0.3v4.5v26v3.4V99h0c0.2,17.1,14.1,30.9,31.2,30.9
		c13.4,0,24.9-6.4,29.3-19.8c2.1-6.4-2.7-13-9.4-13l0,0c-4.3,0-8,2.6-9.9,6.4c-1.9,3.9-5.4,6.4-9.7,6.6c-6.5,0.2-11.8-5-11.8-11.4
		v-3.4c0,0,0,0,0,0l22.9-5l9.8-2.1c5.8-1.3,10-6.4,10-12.4v-6.5v-4.5v-0.3h0C142.1,47.3,128.2,33.5,111,33.5z M122.5,68.6v0.6
		l-22.9,5c0,0,0,0,0,0v-4.9v-4.2c0-6.2,4.8-11.5,11-11.7c6.5-0.2,11.8,5,11.8,11.4V68.6z"/>
	<path class="st0" d="M340.1,64.4c-0.2-17.1-14.1-30.9-31.2-30.9c-17.1,0-31.1,13.8-31.2,30.9h0v0.3v4.5v26v3.4V99h0
		c0.2,17.1,14.1,30.9,31.2,30.9c13.4,0,24.9-6.4,29.3-19.8c2.1-6.4-2.7-13-9.4-13h0c-4.3,0-8,2.6-9.9,6.4c-1.9,3.9-5.4,6.4-9.7,6.6
		c-6.5,0.2-11.8-5-11.8-11.4v-3.4c0,0,0,0,0,0l22.9-5l9.8-2.1c5.8-1.3,10-6.4,10-12.4v-6.5v-4.5L340.1,64.4L340.1,64.4z M320.4,68.6
		v0.6l-22.9,5c0,0,0,0,0,0v-4.9v-4.2c0-6.2,4.8-11.5,11-11.7c6.5-0.2,11.8,5,11.8,11.4V68.6z"/>
</g>
</svg>
